<mxfile host="app.diagrams.net" agent="Mozilla/5.0 (Windows NT 10.0; Win64; x64) AppleWebKit/537.36 (KHTML, like Gecko) Chrome/134.0.0.0 Safari/537.36" version="26.1.0">
  <diagram name="第 1 页" id="Jhno6EoJuBNA1dP3zVc-">
    <mxGraphModel dx="1092" dy="551" grid="1" gridSize="10" guides="1" tooltips="1" connect="1" arrows="1" fold="1" page="1" pageScale="1" pageWidth="827" pageHeight="1169" math="0" shadow="0">
      <root>
        <mxCell id="0" />
        <mxCell id="1" parent="0" />
        <mxCell id="KadRHXHtFz8DXNSLYVAC-7" style="edgeStyle=orthogonalEdgeStyle;rounded=0;orthogonalLoop=1;jettySize=auto;html=1;entryX=0.5;entryY=0;entryDx=0;entryDy=0;endArrow=none;startFill=0;fontFamily=宋体;fontSize=13;" edge="1" parent="1" source="KadRHXHtFz8DXNSLYVAC-1" target="KadRHXHtFz8DXNSLYVAC-2">
          <mxGeometry relative="1" as="geometry">
            <Array as="points">
              <mxPoint x="460" y="130" />
              <mxPoint x="60" y="130" />
            </Array>
          </mxGeometry>
        </mxCell>
        <mxCell id="KadRHXHtFz8DXNSLYVAC-9" style="edgeStyle=orthogonalEdgeStyle;shape=connector;rounded=0;orthogonalLoop=1;jettySize=auto;html=1;entryX=0.5;entryY=0;entryDx=0;entryDy=0;strokeColor=default;align=center;verticalAlign=middle;fontFamily=宋体;fontSize=13;fontColor=default;labelBackgroundColor=default;startFill=0;endArrow=none;" edge="1" parent="1" source="KadRHXHtFz8DXNSLYVAC-1" target="KadRHXHtFz8DXNSLYVAC-3">
          <mxGeometry relative="1" as="geometry">
            <Array as="points">
              <mxPoint x="460" y="130" />
              <mxPoint x="200" y="130" />
            </Array>
          </mxGeometry>
        </mxCell>
        <mxCell id="KadRHXHtFz8DXNSLYVAC-10" style="edgeStyle=orthogonalEdgeStyle;shape=connector;rounded=0;orthogonalLoop=1;jettySize=auto;html=1;entryX=0.5;entryY=0;entryDx=0;entryDy=0;strokeColor=default;align=center;verticalAlign=middle;fontFamily=宋体;fontSize=13;fontColor=default;labelBackgroundColor=default;startFill=0;endArrow=none;" edge="1" parent="1" source="KadRHXHtFz8DXNSLYVAC-1" target="KadRHXHtFz8DXNSLYVAC-4">
          <mxGeometry relative="1" as="geometry">
            <Array as="points">
              <mxPoint x="460" y="130" />
              <mxPoint x="380" y="130" />
            </Array>
          </mxGeometry>
        </mxCell>
        <mxCell id="KadRHXHtFz8DXNSLYVAC-11" style="edgeStyle=orthogonalEdgeStyle;shape=connector;rounded=0;orthogonalLoop=1;jettySize=auto;html=1;entryX=0.5;entryY=0;entryDx=0;entryDy=0;strokeColor=default;align=center;verticalAlign=middle;fontFamily=宋体;fontSize=13;fontColor=default;labelBackgroundColor=default;startFill=0;endArrow=none;" edge="1" parent="1" source="KadRHXHtFz8DXNSLYVAC-1" target="KadRHXHtFz8DXNSLYVAC-5">
          <mxGeometry relative="1" as="geometry">
            <Array as="points">
              <mxPoint x="460" y="130" />
              <mxPoint x="600" y="130" />
            </Array>
          </mxGeometry>
        </mxCell>
        <mxCell id="KadRHXHtFz8DXNSLYVAC-12" style="edgeStyle=orthogonalEdgeStyle;shape=connector;rounded=0;orthogonalLoop=1;jettySize=auto;html=1;entryX=0.5;entryY=0;entryDx=0;entryDy=0;strokeColor=default;align=center;verticalAlign=middle;fontFamily=宋体;fontSize=13;fontColor=default;labelBackgroundColor=default;startFill=0;endArrow=none;" edge="1" parent="1" source="KadRHXHtFz8DXNSLYVAC-1" target="KadRHXHtFz8DXNSLYVAC-6">
          <mxGeometry relative="1" as="geometry">
            <Array as="points">
              <mxPoint x="460" y="130" />
              <mxPoint x="830" y="130" />
            </Array>
          </mxGeometry>
        </mxCell>
        <mxCell id="KadRHXHtFz8DXNSLYVAC-1" value="基于深度学习的无人机航拍小目标检测算法研究" style="rounded=0;whiteSpace=wrap;html=1;fontFamily=宋体;fontSize=13;" vertex="1" parent="1">
          <mxGeometry x="330" y="60" width="260" height="40" as="geometry" />
        </mxCell>
        <mxCell id="KadRHXHtFz8DXNSLYVAC-2" value="第一章&lt;div&gt;绪论&lt;/div&gt;" style="rounded=0;whiteSpace=wrap;html=1;fontFamily=宋体;fontSize=13;" vertex="1" parent="1">
          <mxGeometry x="20" y="170" width="80" height="40" as="geometry" />
        </mxCell>
        <mxCell id="KadRHXHtFz8DXNSLYVAC-3" value="第二章&lt;div&gt;相关理论与方法&lt;/div&gt;" style="rounded=0;whiteSpace=wrap;html=1;fontFamily=宋体;fontSize=13;" vertex="1" parent="1">
          <mxGeometry x="150" y="170" width="100" height="40" as="geometry" />
        </mxCell>
        <mxCell id="KadRHXHtFz8DXNSLYVAC-4" value="第三章&lt;div&gt;&lt;span&gt;基于频域感知与双域注意力的小目标检测算法研究&lt;/span&gt;&lt;/div&gt;" style="rounded=0;whiteSpace=wrap;html=1;fontFamily=宋体;fontSize=13;" vertex="1" parent="1">
          <mxGeometry x="290" y="165" width="180" height="50" as="geometry" />
        </mxCell>
        <mxCell id="KadRHXHtFz8DXNSLYVAC-5" value="第四章&lt;div&gt;&lt;span&gt;基于多模态协同感知的小目标检测算法研究&lt;/span&gt;&lt;/div&gt;" style="rounded=0;whiteSpace=wrap;html=1;fontFamily=宋体;fontSize=13;" vertex="1" parent="1">
          <mxGeometry x="510" y="165" width="180" height="50" as="geometry" />
        </mxCell>
        <mxCell id="KadRHXHtFz8DXNSLYVAC-6" value="第五章&lt;div&gt;&lt;span&gt;无人机航拍小目标检测系统设计与实现&lt;/span&gt;&lt;/div&gt;" style="rounded=0;whiteSpace=wrap;html=1;fontFamily=宋体;fontSize=13;" vertex="1" parent="1">
          <mxGeometry x="730" y="165" width="180" height="50" as="geometry" />
        </mxCell>
      </root>
    </mxGraphModel>
  </diagram>
</mxfile>
